<svg xmlns="http://www.w3.org/2000/svg" xmlns:xlink="http://www.w3.org/1999/xlink" width="155.83594" height="30.24933" viewBox="0 0 155.83594 30.24933">
  <defs>
    <style>
      .a {
        fill: url(#a);
      }

      .b {
        fill: url(#b);
      }

      .c {
        fill: url(#c);
      }

      .d {
        fill: url(#d);
      }

      .e {
        fill: url(#e);
      }

      .f {
        fill: url(#f);
      }

      .g {
        isolation: isolate;
      }

      .h {
        fill: #064ab9;
      }
    </style>
    <linearGradient id="a" x1="1.61639" y1="9.88227" x2="32.5021" y2="9.88227" gradientTransform="matrix(1, 0, 0, -1, -1.61639, 20.25788)" gradientUnits="userSpaceOnUse">
      <stop offset="0" stop-color="#3cc5ef"/>
      <stop offset="0.06769" stop-color="#35b6e8"/>
      <stop offset="0.26353" stop-color="#248fd7"/>
      <stop offset="0.45775" stop-color="#1771ca"/>
      <stop offset="0.6475" stop-color="#0e5bc1"/>
      <stop offset="0.8307" stop-color="#084ebb"/>
      <stop offset="1" stop-color="#064ab9"/>
    </linearGradient>
    <linearGradient id="b" x1="5.20506" y1="9.02762" x2="39.08643" y2="9.02762" xlink:href="#a"/>
    <linearGradient id="c" x1="8.69148" y1="1.27402" x2="41.34941" y2="1.27402" xlink:href="#a"/>
    <linearGradient id="d" x1="11.20131" y1="-7.22317" x2="36.75351" y2="-7.22317" xlink:href="#a"/>
    <linearGradient id="e" x1="12.3399" y1="7.81909" x2="25.39613" y2="21.23842" xlink:href="#a"/>
    <linearGradient id="f" x1="20.54251" y1="-7.57361" x2="30.77356" y2="2.94196" xlink:href="#a"/>
  </defs>
  <path class="a" d="M7.40447,16.96082S6.52847,5.60738,18.67016,1.92476C22.66048.71448,29.93585,1.4705,30.799,7.51218c1.163,8.141-9.67306,10.28052-14.08212,10.94771C12.58369,19.08532,5.26944,19.82267,0,18.8233c0,0,18.89729-.04543,24.71184-6.04168,2.25414-2.32459.31034-4.44233-1.67946-4.99469-3.77168-1.047-9.961,1.63315-10.44933,8.35622Z" transform="translate(0 -0.96939)"/>
  <path class="b" d="M3.58867,19.91352a35.01741,35.01741,0,0,0,26.52894-2.36216c9.02557-4.57578,6.85651-12.12879,6.85651-12.12879a2.55742,2.55742,0,0,0,.13912-2.81642,2.83116,2.83116,0,0,0-3.67952-1.40821,2.86984,2.86984,0,0,0-1.63535,3.42968,2.83646,2.83646,0,0,0,2.277,2.0385,7.19742,7.19742,0,0,1-.95963,5.02527C31.32328,14.67437,24.66641,22.04855,3.58867,19.91352Z" transform="translate(0 -0.96939)"/>
  <path class="c" d="M34.67153,17.381s-.42019-2.90728,2.33945-3.123a2.305,2.305,0,0,1,2.6625,1.88074l.00629.03851a2.6176,2.6176,0,0,1-3.566,2.94135A32.16385,32.16385,0,0,1,24.178,23.37732c-6.42554.88445-14.95657.06814-17.10295-1.39685,0,0,9.19881,1.43092,16.31935-.13344A36.53361,36.53361,0,0,0,34.67153,17.381Z" transform="translate(0 -0.96939)"/>
  <path class="d" d="M9.58492,24.11545a34.63421,34.63421,0,0,0,6.56409.88581,12.05625,12.05625,0,0,0,8.69911,3.61138,14.12389,14.12389,0,0,0,10.289-4.86925s-4.077,7.70838-13.13952,7.4699A14.21787,14.21787,0,0,1,9.58492,24.11545Z" transform="translate(0 -0.96939)"/>
  <path class="e" d="M10.009,16.54957A15.43883,15.43883,0,0,1,15.1452,5.61217c5.59524-4.775,10.97067-3.54224,10.97067-3.54224S19.99633-.41524,13.42455,4.45621A15.23613,15.23613,0,0,0,7.40447,16.96082Z" transform="translate(0 -0.96939)"/>
  <path class="f" d="M13.19561,24.78113a8.75178,8.75178,0,0,0,6.32362,4.45318c4.71191.88317,11.16568.45114,15.61794-5.49092,0,0-4.25144,8.85671-15.41906,7.25884A14.38,14.38,0,0,1,9.58494,24.11545Z" transform="translate(0 -0.96939)"/>
  <g class="g">
    <path class="h" d="M52.9209,18.30859q0,.09669-.04834,1.06153a1.42488,1.42488,0,0,1-.314.89355,1.41553,1.41553,0,0,1-.91748.2168H44.92969v.53125a2.15143,2.15143,0,0,0,.80859,1.89551,4.72376,4.72376,0,0,0,2.64356.56738,13.07555,13.07555,0,0,0,3.13867-.38672q.57934-.14355.78467.03613a1.11376,1.11376,0,0,1,.20507.80957v.31348a1.27707,1.27707,0,0,1-.18115.80859,1.74152,1.74152,0,0,1-.80859.374,11.623,11.623,0,0,1-3.13867.38672,6.7756,6.7756,0,0,1-4.50245-1.24317,4.922,4.922,0,0,1-1.43652-3.92285V18.5498q0-5.239,5.35986-5.23974a5.26024,5.26024,0,0,1,3.81446,1.26758A4.97386,4.97386,0,0,1,52.9209,18.30859Zm-7.99121-.45947v.604H50.5791v-.604q0-2.39062-2.84912-2.39062Q44.92919,15.4585,44.92969,17.84912Z" transform="translate(0 -0.96939)"/>
    <path class="h" d="M66.07812,9.73682V20.65039A5.007,5.007,0,0,1,64.66553,24.501a5.79019,5.79019,0,0,1-4.0918,1.31543q-5.529,0-5.52881-5.166V18.57422q0-5.26392,5.0459-5.26416a3.83726,3.83726,0,0,1,3.5249,1.56933V9.73682a1.25854,1.25854,0,0,1,.21729-.86914,1.25974,1.25974,0,0,1,.86914-.2168h.28955a1.2606,1.2606,0,0,1,.86914.2168A1.25855,1.25855,0,0,1,66.07812,9.73682Zm-8.54638,8.78857v2.07617a3.073,3.073,0,0,0,.65185,2.2334,3.37056,3.37056,0,0,0,2.36573.63965,3.425,3.425,0,0,0,2.39013-.65234,3.00266,3.00266,0,0,0,.67627-2.22071V18.52539a3.04391,3.04391,0,0,0-.67627-2.2456,3.425,3.425,0,0,0-2.39013-.65235,3.33237,3.33237,0,0,0-2.35352.65235A3.07934,3.07934,0,0,0,57.53174,18.52539Z" transform="translate(0 -0.96939)"/>
    <path class="h" d="M71.02637,14.6626v6.4458a2.34939,2.34939,0,0,0,.60351,1.835,3.34265,3.34265,0,0,0,2.17285.53125,3.29712,3.29712,0,0,0,2.14893-.53125,2.35115,2.35115,0,0,0,.60352-1.835V14.6626a1.25686,1.25686,0,0,1,.21728-.86914,1.25393,1.25393,0,0,1,.86914-.21778h.31348a1.25393,1.25393,0,0,1,.86914.21778,1.25651,1.25651,0,0,1,.21777.86914v6.4458a4.55585,4.55585,0,0,1-1.27978,3.54883,5.76161,5.76161,0,0,1-3.95948,1.15918q-5.26317,0-5.26269-4.708V14.6626a1.25686,1.25686,0,0,1,.21728-.86914,1.25394,1.25394,0,0,1,.86914-.21778h.31348a1.25393,1.25393,0,0,1,.86914.21778A1.25685,1.25685,0,0,1,71.02637,14.6626Z" transform="translate(0 -0.96939)"/>
    <path class="h" d="M80.61133,15.04834v-.24121a1.08188,1.08188,0,0,1,.16894-.7002,1.17114,1.17114,0,0,1,.65137-.29l1.28027-.24121V12.17529a4.1506,4.1506,0,0,1,1.07422-3.18652,4.69377,4.69377,0,0,1,3.27051-.98926,10.05269,10.05269,0,0,1,1.5459.12012,1.61038,1.61038,0,0,1,.833.33789,1.22555,1.22555,0,0,1,.20507.82129v.28906q0,.62843-.21777.79688a1.17268,1.17268,0,0,1-.48242.09668l-.77246-.04786a7.8456,7.8456,0,0,0-.94141-.07324q-2.05224,0-2.05273,1.64258v1.59277h3.21094a1.21359,1.21359,0,0,1,.82128.19336,1.2187,1.2187,0,0,1,.19239.82032v.29a1.22005,1.22005,0,0,1-.19239.82129,1.21446,1.21446,0,0,1-.82128.19239H85.17383v8.57177a1.26149,1.26149,0,0,1-.2168.86914,1.26146,1.26146,0,0,1-.86914.2168h-.29a1.25974,1.25974,0,0,1-.86914-.2168,1.26149,1.26149,0,0,1-.2168-.86914V15.89307H81.45605a.97436.97436,0,0,1-.67578-.169A.97435.97435,0,0,1,80.61133,15.04834Z" transform="translate(0 -0.96939)"/>
    <path class="h" d="M93.4541,14.6626v6.4458a2.34936,2.34936,0,0,0,.60352,1.835,3.34353,3.34353,0,0,0,2.17285.53125,3.29869,3.29869,0,0,0,2.14941-.53125,2.353,2.353,0,0,0,.60352-1.835V14.6626a1.25974,1.25974,0,0,1,.2168-.86914,1.25393,1.25393,0,0,1,.86914-.21778h.31347a1.25393,1.25393,0,0,1,.86914.21778,1.25393,1.25393,0,0,1,.21778.86914v6.4458a4.55568,4.55568,0,0,1-1.2793,3.54883,5.76215,5.76215,0,0,1-3.96,1.15918q-5.26318,0-5.2627-4.708V14.6626a1.25393,1.25393,0,0,1,.21778-.86914,1.25393,1.25393,0,0,1,.86914-.21778h.31347a1.25393,1.25393,0,0,1,.86914.21778A1.25974,1.25974,0,0,1,93.4541,14.6626Z" transform="translate(0 -0.96939)"/>
    <path class="h" d="M104.02832,22.1709V9.73682a1.26149,1.26149,0,0,1,.2168-.86914,1.26144,1.26144,0,0,1,.86914-.2168h.31445a1.26146,1.26146,0,0,1,.86914.2168,1.26149,1.26149,0,0,1,.2168.86914V21.68848a2.44977,2.44977,0,0,0,.26562,1.32714.978.978,0,0,0,.86914.38672,1.12446,1.12446,0,0,1,.76075.169,1.302,1.302,0,0,1,.15722.79687v.24122a1.16891,1.16891,0,0,1-.19336.78417,1.55136,1.55136,0,0,1-.79687.32618,1.42133,1.42133,0,0,1-.33789.02441,3.07887,3.07887,0,0,1-2.36621-.90527A3.7773,3.7773,0,0,1,104.02832,22.1709Z" transform="translate(0 -0.96939)"/>
    <path class="h" d="M112.62305,17.99365v6.47119a1.26149,1.26149,0,0,1-.2168.86914,1.26146,1.26146,0,0,1-.86914.2168h-.31445a1.26144,1.26144,0,0,1-.86914-.2168,1.26144,1.26144,0,0,1-.2168-.86914V17.99365q0-4.6831,5.26269-4.68359a5.80056,5.80056,0,0,1,3.97168,1.14648,4.54194,4.54194,0,0,1,1.26758,3.53711v6.47119a1.26081,1.26081,0,0,1-.21777.86914,1.25974,1.25974,0,0,1-.86914.2168h-.31348a1.25974,1.25974,0,0,1-.86914-.2168,1.25562,1.25562,0,0,1-.21777-.86914V17.99365a2.35076,2.35076,0,0,0-.60352-1.835,3.29959,3.29959,0,0,0-2.14844-.53125,3.34767,3.34767,0,0,0-2.17285.53125A2.3508,2.3508,0,0,0,112.62305,17.99365Z" transform="translate(0 -0.96939)"/>
    <path class="h" d="M133.48145,18.30859q0,.09669-.04883,1.06153a1.41939,1.41939,0,0,1-.31348.89355,1.41486,1.41486,0,0,1-.917.2168h-6.71192v.53125a2.15143,2.15143,0,0,0,.8086,1.89551,4.72485,4.72485,0,0,0,2.64355.56738,13.08146,13.08146,0,0,0,3.13867-.38672c.38672-.0957.64747-.084.78418.03613a1.113,1.113,0,0,1,.20606.80957v.31348a1.2766,1.2766,0,0,1-.18164.80859,1.74157,1.74157,0,0,1-.8086.374,11.6204,11.6204,0,0,1-3.13867.38672,6.77322,6.77322,0,0,1-4.502-1.24317,4.92028,4.92028,0,0,1-1.43652-3.92285V18.5498q0-5.239,5.35937-5.23974a5.26021,5.26021,0,0,1,3.81445,1.26758A4.97383,4.97383,0,0,1,133.48145,18.30859Zm-7.99122-.45947v.604h5.64942v-.604q0-2.39062-2.84863-2.39062Q125.49023,15.4585,125.49023,17.84912Z" transform="translate(0 -0.96939)"/>
    <path class="h" d="M135.50879,24.22266v-.31348a1.1593,1.1593,0,0,1,.19336-.80859q.1919-.18165.77246-.03614a13.39378,13.39378,0,0,0,3.52441.458,4.64533,4.64533,0,0,0,1.73828-.22851.81805.81805,0,0,0,.50684-.80957.97245.97245,0,0,0-.31348-.74805,5.0332,5.0332,0,0,0-1.23144-.7002L138.0918,19.877a4.59341,4.59341,0,0,1-1.84668-1.30273,3.23439,3.23439,0,0,1-.543-1.981,2.85293,2.85293,0,0,1,1.11035-2.48633,6.07638,6.07638,0,0,1,3.5-.79687,10.436,10.436,0,0,1,2.80078.3623,1.82354,1.82354,0,0,1,.833.41016,1.28716,1.28716,0,0,1,.18066.79687v.29a1.11088,1.11088,0,0,1-.20507.8086q-.20508.18163-.78418.01172a10.11192,10.11192,0,0,0-2.87305-.38575,4.1582,4.1582,0,0,0-1.6416.2295.78276.78276,0,0,0-.4834.75976.95654.95654,0,0,0,.24219.68848,2.91843,2.91843,0,0,0,.89257.543l2.80079,1.20752a4.73528,4.73528,0,0,1,1.99218,1.35254,3.29247,3.29247,0,0,1,.59082,2.05175,2.90847,2.90847,0,0,1-1.1709,2.5586,6.55362,6.55362,0,0,1-3.70507.82129,13.20728,13.20728,0,0,1-3.30762-.41016,1.62876,1.62876,0,0,1-.78516-.38672A1.29,1.29,0,0,1,135.50879,24.22266Z" transform="translate(0 -0.96939)"/>
    <path class="h" d="M146.68652,24.22266v-.31348a1.15935,1.15935,0,0,1,.19336-.80859q.19189-.18165.77246-.03614a13.3938,13.3938,0,0,0,3.52442.458A4.64533,4.64533,0,0,0,152.915,23.294a.81807.81807,0,0,0,.50684-.80957.97249.97249,0,0,0-.31348-.74805,5.03332,5.03332,0,0,0-1.23145-.7002L149.26953,19.877a4.59348,4.59348,0,0,1-1.84668-1.30273,3.23446,3.23446,0,0,1-.543-1.981,2.85293,2.85293,0,0,1,1.11035-2.48633,6.0764,6.0764,0,0,1,3.5-.79687,10.43611,10.43611,0,0,1,2.80079.3623,1.82349,1.82349,0,0,1,.833.41016,1.28708,1.28708,0,0,1,.18067.79687v.29a1.11082,1.11082,0,0,1-.20508.8086q-.20508.18163-.78418.01172a10.11187,10.11187,0,0,0-2.873-.38575,4.1582,4.1582,0,0,0-1.6416.2295.78277.78277,0,0,0-.4834.75976.95658.95658,0,0,0,.24219.68848,2.91864,2.91864,0,0,0,.89258.543l2.80078,1.20752a4.73533,4.73533,0,0,1,1.99219,1.35254,3.29253,3.29253,0,0,1,.59082,2.05175,2.90849,2.90849,0,0,1-1.1709,2.5586,6.55366,6.55366,0,0,1-3.70508.82129,13.2074,13.2074,0,0,1-3.30762-.41016,1.62866,1.62866,0,0,1-.78515-.38672A1.28988,1.28988,0,0,1,146.68652,24.22266Z" transform="translate(0 -0.96939)"/>
  </g>
</svg>
